Title................................: Courageous 2011 BRRip XviD xTriLL
IMDB.................................: http://www.imdb.com/title/tt1630036
International title(s)...............: Courageous 2011
Directors............................: Alex Kendrick, Ken Bevel, Kevin Downes
Release year.........................: 2011
Language.............................: English
Runtime..............................: 2h 9mn
Genre................................: Drama / Family
IMDb rating..........................: 6.4
Subtitles............................: N/A
Release Date.........................: 12/18/2011

| Plot summary |
Four men, one calling: To serve and protect. As law enforcement officers, they face danger every day. Yet when tragedy strikes close to home, these fathers are left wrestling with their hopes, their fears, and their faith. From this struggle will come a decision that changes all of their lives. With action, drama, and humor, the fourth film from Sherwood Pictures embraces God's promise to "turn the hearts of fathers to their children, and the hearts of children to their fathers." Souls will be stirred, and hearts will be challenged to be

| SOURCE iNFORMATION | Video................................: Courageous.2011.BluRay.720p.x264.DTS-HDChina (Thanks)
Audio................................: Courageous.2011.BluRay.720p.x264.DTS-HDChina (Thanks)
Source size..........................: 4.41 GB
| Video iNFO | Format : AVI
Format/Info : Audio Video Interleave
File size : 762 MiB
Duration : 2h 9mn
Overall bit rate : 823 Kbps
Writing application : VirtualDubMod 1.5.10.2 (build 2540/release)
Writing library : VirtualDubMod build 2540/release


| Video Attribute | ID : 0
Format : MPEG-4 Visual
Format profile : Advanced Simple@L5
Format settings, BVOP : 2
Format settings, QPel : No
Format settings, GMC : No warppoints
Format settings, Matrix : Default (H.263)
Muxing mode : Packed bitstream
Codec ID : XVID
Codec ID/Hint : XviD
Duration : 2h 9mn
Bit rate : 688 Kbps
Width : 720 pixels
Height : 304 pixels
Display aspect ratio : 2.35:1
Frame rate : 23.976 fps
Color space : YUV
Chroma subsampling : 4:2:0
Bit depth : 8 bits
Scan type : Progressive
Compression mode : Lossy
Bits/(Pixel*Frame) : 0.131
Stream size : 636 MiB (84%)
Writing library : XviD 72
| Audio Attribute | ID : 1
Format : MPEG Audio
Format version : Version 1
Format profile : Layer 3
Mode : Joint stereo
Codec ID : 55
Codec ID/Hint : MP3
Duration : 2h 9mn
Bit rate mode : Variable
Bit rate : 123 Kbps
Minimum bit rate : 32.0 Kbps
Channel(s) : 2 channels
Sampling rate : 48.0 KHz
Compression mode : Lossy
Stream size : 113 MiB (15%)
Alignment : Aligned on interleaves
Interleave, duration : 24 ms (0.58 video frame)
Interleave, preload duration : 427 ms
Writing library : LAME3.98r
Encoding settings : -m j -V 5 -q 2 -lowpass 16.5 --vbr-new -b 32
| Contact Info | Looking for us, you know where to find us!
| Ripper note | Encoder................................: xTriLLion

Greetz to DTRG, ViSiON, CrewSade, ETRG, REFiLL, TRiNiTY, FYA, REMIS, SiC, MiSTERE, 26K,
BHRG,iLLUMiNATi and all p2p scene groups out there past and present...